<?xml version="1.0" encoding="UTF-8" standalone="no"?>
<!-- Created with Inkscape (http://www.inkscape.org/) -->

<svg
   xmlns:dc="http://purl.org/dc/elements/1.1/"
   xmlns:cc="http://creativecommons.org/ns#"
   xmlns:rdf="http://www.w3.org/1999/02/22-rdf-syntax-ns#"
   xmlns:svg="http://www.w3.org/2000/svg"
   xmlns="http://www.w3.org/2000/svg"
   xmlns:sodipodi="http://sodipodi.sourceforge.net/DTD/sodipodi-0.dtd"
   xmlns:inkscape="http://www.inkscape.org/namespaces/inkscape"
   width="136.14687mm"
   height="138.19783mm"
   viewBox="0 0 482.41016 489.67728"
   id="svg2"
   version="1.1"
   inkscape:version="0.92.1 r15371"
   sodipodi:docname="splatter.svg">
  <defs
     id="defs4" />
  <sodipodi:namedview
     id="base"
     pagecolor="#ffffff"
     bordercolor="#666666"
     borderopacity="1.0"
     inkscape:pageopacity="0.0"
     inkscape:pageshadow="2"
     inkscape:zoom="0.2841701"
     inkscape:cx="367.52429"
     inkscape:cy="394.05679"
     inkscape:document-units="px"
     inkscape:current-layer="g4842"
     showgrid="false"
     inkscape:window-width="737"
     inkscape:window-height="581"
     inkscape:window-x="3038"
     inkscape:window-y="49"
     inkscape:window-maximized="0"
     fit-margin-left="0.1"
     fit-margin-top="0.1"
     fit-margin-right="0.1"
     fit-margin-bottom="0.1" />
  <metadata
     id="metadata7">
    <rdf:RDF>
      <cc:Work
         rdf:about="">
        <dc:format>image/svg+xml</dc:format>
        <dc:type
           rdf:resource="http://purl.org/dc/dcmitype/StillImage" />
        <dc:title />
      </cc:Work>
    </rdf:RDF>
  </metadata>
  <g
     transform="translate(-40.075249,-344.57218)"
     style="display:inline"
     inkscape:label="ink copy 1"
     id="g4842"
     inkscape:groupmode="layer">
    <path
       style="fill:#1a1a39;fill-opacity:1"
       d="m 307.73575,392.38363 c 17.42802,-37.43042 -2.56948,-32.44322 -30.24309,21.84657 -35.68212,66.3239 -70.23898,34.46514 -109.91448,-0.39131 -16.59972,-14.58349 1.95375,34.9293 -15.70765,27.56276 -5.40901,-2.25609 -11.69116,-9.8452 -17.2699,-21.02463 -5.80328,-11.62938 -7.34013,-15.12003 -13.35168,-29.7437 -3.48045,-8.46653 -24.626159,-17.31263 -31.832146,-12.29982 -10.792076,7.50745 -6.314525,18.42687 9.699374,39.4522 6.586072,8.64713 37.847332,20.18013 47.571672,28.31126 15.93942,13.32797 17.60813,44.11237 18.40931,58.25524 2.47844,43.75067 -44.64053,-18.74603 -64.57671,-25.93799 -19.936176,-7.19196 -26.702606,-9.94128 -46.860414,5.81068 -8.441654,6.59658 -11.300493,30.28183 -4.629451,37.48439 9.258724,9.9964 31.571883,14.17107 47.017098,18.37759 26.573707,7.23738 32.688507,41.81424 -13.837712,80.04329 -27.56075,22.64575 -38.234106,60.69486 -2.046228,47.75959 14.226233,-5.08514 30.165447,-12.38023 43.111427,-13.8543 18.72817,-2.13245 43.35041,-8.59011 34.14989,16.57024 -9.20052,25.16035 -82.778092,59.12101 -88.463142,88.58376 -5.68505,29.46275 107.732772,-53.10555 87.662262,19.13804 -22.20186,113.87716 80.04397,-82.84139 112.47163,-79.28924 50.14623,8.28564 37.37105,38.41557 39.82099,98.36284 2.44993,59.94727 29.9185,5.02419 30.68895,-17.33459 0.42633,-12.37228 18.50135,-12.15955 38.86439,9.64098 20.71272,22.06064 14.37709,-6.20074 0.90184,-39.37815 -9.85423,-18.90358 41.54541,2.56991 51.32166,7.02037 25.38693,11.55695 58.91975,34.60339 67.155,15.91117 6.95268,-15.78106 -16.9818,-36.57835 -43.87574,-43.44323 -26.89394,-6.86488 -72.45086,-22.77572 -62.83763,-67.73462 21.24745,-65.67856 117.15165,-52.91492 115.42459,-82.38732 -2.40203,-24.08715 -37.86861,3.87549 -66.53087,-3.87481 -25.74922,-6.96262 -40.82015,-12.49418 -40.86328,-29.52189 -0.0424,-16.75995 32.25219,-12.6274 68.6374,-31.53855 72.51194,-36.11177 37.22296,-93.27012 -17.92732,-68.80168 -44.00578,24.78473 -52.20501,46.88185 -87.76311,47.55408 -35.5581,0.67223 -36.41576,-19.14632 -21.05688,-38.41549 12.26718,-15.39034 44.91695,-12.09642 65.11941,-27.31968 9.40073,-11.4091 28.3452,-33.9384 21.72181,-40.68459 -14.47985,-11.13879 -63.7879,27.57456 -88.23208,33.16967 -33.0112,2.60916 -37.24189,-3.42164 -31.92919,-27.87913 z"
       id="circle4844"
       inkscape:connector-curvature="0"
       sodipodi:nodetypes="ccsssssssszsssssszzcczsccsszccsscczscccc" />
  </g>
  <g
     inkscape:groupmode="layer"
     id="layer3"
     inkscape:label="eyes"
     style="display:inline"
     transform="translate(-40.075249,-344.57218)"
     sodipodi:insensitive="true">
    <g
       id="g4339"
       transform="matrix(1,0,0,1.322034,-48.883197,-84.759433)">
      <ellipse
         ry="23.515997"
         rx="10.947102"
         cy="493.6546"
         cx="359.22711"
         id="path4248-9"
         style="display:inline;fill:#ececec;fill-opacity:1" />
      <ellipse
         ry="23.515997"
         rx="10.947102"
         cy="494.46548"
         cx="287.05734"
         id="path4248-2"
         style="display:inline;fill:#ececec;fill-opacity:1" />
    </g>
  </g>
</svg>
