<?xml version="1.0" encoding="UTF-8" standalone="no"?>
<!-- Created with Inkscape (http://www.inkscape.org/) -->

<svg
   xmlns:dc="http://purl.org/dc/elements/1.1/"
   xmlns:cc="http://creativecommons.org/ns#"
   xmlns:rdf="http://www.w3.org/1999/02/22-rdf-syntax-ns#"
   xmlns:svg="http://www.w3.org/2000/svg"
   xmlns="http://www.w3.org/2000/svg"
   xmlns:sodipodi="http://sodipodi.sourceforge.net/DTD/sodipodi-0.dtd"
   xmlns:inkscape="http://www.inkscape.org/namespaces/inkscape"
   width="136.14687mm"
   height="138.19783mm"
   viewBox="0 0 482.41016 489.67728"
   id="svg2"
   version="1.1"
   inkscape:version="0.92.1 r15371"
   sodipodi:docname="splatter.svg">
  <defs
     id="defs4" />
  <sodipodi:namedview
     id="base"
     pagecolor="#ffffff"
     bordercolor="#666666"
     borderopacity="1.0"
     inkscape:pageopacity="0.0"
     inkscape:pageshadow="2"
     inkscape:zoom="0.5683402"
     inkscape:cx="303.94065"
     inkscape:cy="10.319979"
     inkscape:document-units="px"
     inkscape:current-layer="g4842"
     showgrid="false"
     inkscape:window-width="737"
     inkscape:window-height="581"
     inkscape:window-x="3038"
     inkscape:window-y="49"
     inkscape:window-maximized="0"
     fit-margin-left="0.1"
     fit-margin-top="0.1"
     fit-margin-right="0.1"
     fit-margin-bottom="0.1" />
  <metadata
     id="metadata7">
    <rdf:RDF>
      <cc:Work
         rdf:about="">
        <dc:format>image/svg+xml</dc:format>
        <dc:type
           rdf:resource="http://purl.org/dc/dcmitype/StillImage" />
        <dc:title></dc:title>
      </cc:Work>
    </rdf:RDF>
  </metadata>
  <g
     transform="translate(-40.075249,-344.57218)"
     style="display:inline"
     inkscape:label="ink copy 1"
     id="g4842"
     inkscape:groupmode="layer">
    <path
       style="fill:#1a1a39;fill-opacity:1"
       d="m 307.73575,392.38363 c 17.42802,-37.43042 -2.56948,-32.44322 -30.24309,21.84657 -35.68212,66.3239 -70.23898,34.46514 -109.91448,-0.39131 -16.59972,-14.58349 1.95375,34.9293 -15.70765,27.56276 -5.40901,-2.25609 -11.69116,-9.8452 -17.2699,-21.02463 -5.80328,-11.62938 -7.34013,-15.12003 -13.35168,-29.7437 -3.48045,-8.46653 -24.626159,-17.31263 -31.832146,-12.29982 -10.792076,7.50745 -6.314525,18.42687 9.699374,39.4522 6.586072,8.64713 37.847332,20.18013 47.571672,28.31126 15.93942,13.32797 17.60813,44.11237 18.40931,58.25524 2.47844,43.75067 -40.25794,28.94201 -60.19412,21.75005 -19.936179,-7.19196 -32.251597,-46.54851 -52.409405,-30.79655 -8.441654,6.59658 -10.134092,19.20102 -3.46305,26.40358 9.258724,9.9964 31.571883,14.17107 47.017098,18.37759 26.573707,7.23738 111.041657,35.21608 -13.837712,80.04329 -33.573529,12.05169 -38.234106,60.69486 -2.046228,47.75959 14.226233,-5.08514 20.268207,-29.7004 33.214187,-31.17447 18.72817,-2.13245 53.24765,8.73006 44.04713,33.89041 -9.20052,25.16035 -43.12046,35.79299 -48.80551,65.25574 -5.68505,29.46275 122.89598,-32.11033 59.66864,41.29966 -63.22735,73.40999 18.1315,59.03862 37.32231,42.48382 19.19081,-16.5548 35.50163,-32.09122 59.98611,-36.62579 24.48448,-4.53457 43.5253,11.54279 49.15219,36.54359 5.62689,25.0008 29.9185,5.02419 30.68895,-17.33459 0.42633,-12.37228 12.66935,-34.32117 33.03239,-12.52064 20.71272,22.06064 37.70511,14.21128 24.22986,-18.96613 -9.85423,-18.90358 18.94593,-19.18135 27.99364,-13.39165 18.97172,12.14015 44.15678,27.62215 67.155,15.91117 22.99822,-11.71098 8.8377,-46.00962 -10.63331,-54.52404 -19.47101,-8.51442 -29.81445,-14.99399 -42.47001,-36.85933 -4.14779,-7.16624 -12.04726,-50.69707 7.54411,-74.47965 20.8216,-27.70971 52.69458,9.75218 54.27043,-27.70215 -2.40203,-24.08715 -37.86861,3.87549 -66.53087,-3.87481 -25.74922,-6.96262 -40.82013,-12.49418 -40.86328,-29.52189 -0.0761,-30.04302 43.78766,-41.6765 69.66985,-66.26283 25.88219,-24.58633 -7.86189,-20.17077 -36.70446,-5.88365 -28.84257,14.28712 -34.46032,18.6881 -70.01842,19.36033 -35.5581,0.67223 -36.41576,-19.14632 -21.05688,-38.41549 12.26718,-15.39034 44.50457,-14.57073 64.70703,-29.79399 9.40073,-11.4091 7.17916,-22.71608 0.55577,-29.46227 -14.47985,-11.13879 -42.20948,18.82655 -66.65366,24.42166 -33.0112,2.60916 -37.24189,-3.42164 -31.92919,-27.87913 z"
       id="circle4844"
       inkscape:connector-curvature="0"
       sodipodi:nodetypes="ccsssssssszsssssszzzzzzsccszzsccsszzzscccc" />
  </g>
  <g
     inkscape:groupmode="layer"
     id="layer3"
     inkscape:label="eyes"
     style="display:inline"
     transform="translate(-40.075249,-344.57218)"
     sodipodi:insensitive="true">
    <g
       id="g4339"
       transform="matrix(1,0,0,1.322034,-48.883197,-84.759433)">
      <ellipse
         ry="23.515997"
         rx="10.947102"
         cy="493.6546"
         cx="359.22711"
         id="path4248-9"
         style="display:inline;fill:#ececec;fill-opacity:1" />
      <ellipse
         ry="23.515997"
         rx="10.947102"
         cy="494.46548"
         cx="287.05734"
         id="path4248-2"
         style="display:inline;fill:#ececec;fill-opacity:1" />
    </g>
  </g>
</svg>
